<svg width="180" height="180" viewBox="0 0 180 180" fill="none" xmlns="http://www.w3.org/2000/svg">
<path fill-rule="evenodd" clip-rule="evenodd" d="M18 38.2495C16.7593 38.2495 15.75 37.2402 15.75 35.9995C15.75 34.7588 16.7593 33.7495 18 33.7495C19.2407 33.7495 20.25 34.7588 20.25 35.9995C20.25 37.2402 19.2407 38.2495 18 38.2495Z" fill="#ECECFE"/>
<path fill-rule="evenodd" clip-rule="evenodd" d="M146.25 162C145.009 162 144 160.99 144 159.75C144 158.509 145.009 157.5 146.25 157.5C147.491 157.5 148.5 158.509 148.5 159.75C148.5 160.99 147.491 162 146.25 162Z" fill="#ECECFE"/>
<path fill-rule="evenodd" clip-rule="evenodd" d="M148.5 24.7495C147.259 24.7495 146.25 23.7402 146.25 22.4995C146.25 21.2588 147.259 20.2495 148.5 20.2495C149.741 20.2495 150.75 21.2588 150.75 22.4995C150.75 23.7402 149.741 24.7495 148.5 24.7495Z" fill="#ECECFE"/>
<path fill-rule="evenodd" clip-rule="evenodd" d="M47.25 173.25C46.0093 173.25 45 172.24 45 171C45 169.759 46.0093 168.75 47.25 168.75C48.4907 168.75 49.5 169.759 49.5 171C49.5 172.24 48.4907 173.25 47.25 173.25Z" fill="#ECECFE"/>
<path d="M94.5 58.4995C94.5 56.0142 92.4853 53.9995 90 53.9995C87.5147 53.9995 85.5 56.0142 85.5 58.4995C85.5 60.9848 87.5147 62.9995 90 62.9995C92.4853 62.9995 94.5 60.9848 94.5 58.4995Z" fill="#E1000F"/>
<path d="M94.5 76.4995C94.5 74.0142 92.4853 71.9995 90 71.9995C87.5147 71.9995 85.5 74.0142 85.5 76.4995V112.5C85.5 114.985 87.5147 117 90 117C92.4853 117 94.5 114.985 94.5 112.5V76.4995Z" fill="#E1000F"/>
<path fill-rule="evenodd" clip-rule="evenodd" d="M132.75 26.9995C144.125 26.9995 152.71 37.8621 152.993 51.0757L153 51.7495V110.25C153 123.54 144.604 134.624 133.326 134.99L132.75 135H106.261L106.087 135.16C105.948 135.291 105.792 135.448 105.622 135.629L105.066 136.243L104.234 137.227L103.058 138.693L101.209 141.107L97.6306 145.849L96.2814 147.613L95.1414 149.066L94.405 149.969L93.9634 150.489L93.5568 150.948L93.1812 151.349L92.8328 151.696L92.5079 151.993L92.2025 152.243C92.153 152.281 92.1042 152.317 92.0559 152.352L91.7726 152.539C91.68 152.595 91.589 152.644 91.4991 152.688L91.2317 152.803C91.1432 152.836 91.055 152.865 90.9665 152.888L90.6997 152.947L90.4273 152.982L90.1456 152.998L89.8544 152.998L89.5728 152.982L89.3008 152.948C89.2113 152.932 89.1228 152.913 89.0345 152.89L88.7701 152.806L88.5036 152.692C88.3692 152.627 88.2326 152.549 88.0915 152.456L87.8028 152.25L87.4984 152.001C87.4461 151.955 87.393 151.908 87.339 151.859L87.0038 151.538L86.643 151.165L86.2529 150.735L85.8296 150.246L84.8676 149.074L84.0299 148.009L81.9984 145.352L78.028 140.092L76.8916 138.619L76.3204 137.899L75.5867 137.001L75.2537 136.605L74.653 135.919C74.4675 135.714 74.2969 135.534 74.1415 135.377L73.7415 135H47.25C35.8753 135 27.2902 124.137 27.0072 110.923L27 110.25V69.7495C27 68.5069 28.0074 67.4995 29.25 67.4995C30.4039 67.4995 31.3549 68.3681 31.4849 69.4871L31.5 69.7495V110.25C31.5 121.288 38.2028 130.165 46.7635 130.49L47.25 130.5L74.3877 130.501L74.6526 130.512L74.9068 130.539L75.154 130.584L75.3978 130.651L75.642 130.745L75.8904 130.868L76.1466 131.024L76.4144 131.216L76.6975 131.45L76.9996 131.727L77.3244 132.052L77.6758 132.429L78.0573 132.86L78.6943 133.619L79.6841 134.856L81.886 137.726L86.0839 143.287L87.6012 145.24L88.4359 146.269L88.6375 146.511C89.0944 147.057 89.4956 147.511 89.837 147.868L90 148.034L90.163 147.87C90.3336 147.691 90.5192 147.489 90.7191 147.263L91.3618 146.515L91.9733 145.773L92.8604 144.66L94.5497 142.461L99.1592 136.363L100.604 134.501L101.551 133.33L102.16 132.619L102.525 132.216L102.861 131.867C102.915 131.813 102.968 131.762 103.02 131.712L103.32 131.436L103.601 131.205C103.647 131.17 103.691 131.136 103.736 131.105L103.995 130.933C104.037 130.907 104.079 130.883 104.121 130.86L104.367 130.739L104.609 130.647C104.65 130.634 104.69 130.622 104.73 130.611L104.973 130.557C105.014 130.55 105.055 130.543 105.097 130.537L105.349 130.512L105.613 130.501L132.75 130.5C141.379 130.5 148.242 121.827 148.493 110.872L148.5 110.25V51.7495C148.5 40.7106 141.797 31.8337 133.237 31.5087L132.75 31.4995H47.25C38.4581 31.4995 31.5 40.5023 31.5 51.7495C31.5 52.9922 30.4926 53.9995 29.25 53.9995C28.0074 53.9995 27 52.9922 27 51.7495C27 38.4587 35.3955 27.3746 46.6741 27.0088L47.25 26.9995H132.75ZM139.5 141.75C139.5 140.507 140.507 139.5 141.75 139.5C142.993 139.5 144 140.507 144 141.75C144 142.992 142.993 144 141.75 144C140.507 144 139.5 142.992 139.5 141.75ZM135 141.75C135 140.507 133.993 139.5 132.75 139.5H110.25L109.988 139.515C108.869 139.645 108 140.596 108 141.75C108 142.992 109.007 144 110.25 144H132.75L133.012 143.984C134.131 143.854 135 142.903 135 141.75Z" fill="#000091"/>
</svg>
